<svg width="23" height="34" viewBox="0 0 23 34" fill="none" xmlns="http://www.w3.org/2000/svg">
<ellipse cx="11.1926" cy="19.0577" rx="2.93957" ry="2.93957" fill="#22DE99"/>
<path d="M22.363 11.4148C22.363 17.584 17.3618 22.5851 11.1926 22.5851C5.02336 22.5851 0.0222168 17.584 0.0222168 11.4148C0.0222168 5.24553 5.02336 0.244385 11.1926 0.244385C17.3618 0.244385 22.363 5.24553 22.363 11.4148ZM3.37333 11.4148C3.37333 15.7332 6.87413 19.234 11.1926 19.234C15.511 19.234 19.0119 15.7332 19.0119 11.4148C19.0119 7.0963 15.511 3.5955 11.1926 3.5955C6.87413 3.5955 3.37333 7.0963 3.37333 11.4148Z" fill="#BA31E1"/>
<path fill-rule="evenodd" clip-rule="evenodd" d="M20.9848 26.816C21.3354 25.8597 20.5543 24.9368 19.5358 24.9368C18.7766 24.9368 18.1334 25.4653 17.827 26.1598C16.6785 28.7634 14.0745 30.5807 11.0461 30.5807C8.01762 30.5807 5.41363 28.7634 4.26515 26.1598C3.95877 25.4653 3.31552 24.9368 2.55638 24.9368C1.53786 24.9368 0.756739 25.8597 1.10736 26.816C2.59221 30.8658 6.48168 33.7555 11.0461 33.7555C15.6105 33.7555 19.4999 30.8658 20.9848 26.816Z" fill="#BA31E1"/>
<path fill-rule="evenodd" clip-rule="evenodd" d="M8.84069 1.71417C8.84069 2.52591 9.49873 3.18396 10.3105 3.18396H20.8929C21.7047 3.18396 22.3627 2.52591 22.3627 1.71417C22.3627 0.90243 21.7047 0.244385 20.8929 0.244385H10.3105C9.49873 0.244385 8.84069 0.90243 8.84069 1.71417ZM13.5442 24.3488L11.4865 19.9395L3.25574 19.0576C3.25574 19.0576 4.13761 20.2334 5.60739 21.1153C7.63962 22.3346 13.5442 24.3488 13.5442 24.3488Z" fill="#BA31E1"/>
</svg>
