<svg width="40" height="40" viewBox="0 0 40 40" fill="none" xmlns="http://www.w3.org/2000/svg">
<circle cx="20" cy="20" r="20" fill="white"/>
<circle cx="20.0003" cy="21.4736" r="2.10527" fill="#22DE99"/>
<path d="M28 16C28 20.4183 24.4183 24 20 24C15.5817 24 12 20.4183 12 16C12 11.5817 15.5817 8 20 8C24.4183 8 28 11.5817 28 16ZM14.4 16C14.4 19.0928 16.9072 21.6 20 21.6C23.0928 21.6 25.6 19.0928 25.6 16C25.6 12.9072 23.0928 10.4 20 10.4C16.9072 10.4 14.4 12.9072 14.4 16Z" fill="#BA31E1"/>
<path d="M28 16C28 20.4183 24.4183 24 20 24C15.5817 24 12 20.4183 12 16C12 11.5817 15.5817 8 20 8C24.4183 8 28 11.5817 28 16ZM14.4 16C14.4 19.0928 16.9072 21.6 20 21.6C23.0928 21.6 25.6 19.0928 25.6 16C25.6 12.9072 23.0928 10.4 20 10.4C16.9072 10.4 14.4 12.9072 14.4 16Z" fill="#BA31E1"/>
<path fill-rule="evenodd" clip-rule="evenodd" d="M27.0131 27.0301C27.2642 26.3452 26.7048 25.6842 25.9754 25.6842C25.4317 25.6842 24.971 26.0627 24.7516 26.5601C23.9291 28.4248 22.0641 29.7263 19.8952 29.7263C17.7263 29.7263 15.8614 28.4248 15.0388 26.5601C14.8194 26.0627 14.3587 25.6842 13.8151 25.6842C13.0856 25.6842 12.5262 26.3452 12.7773 27.0301C13.8407 29.9304 16.6263 32 19.8952 32C23.1641 32 25.9497 29.9304 27.0131 27.0301Z" fill="#BA31E1"/>
<path fill-rule="evenodd" clip-rule="evenodd" d="M18.316 9.05263C18.316 9.63399 18.7873 10.1053 19.3687 10.1053H26.9476C27.529 10.1053 28.0003 9.63399 28.0003 9.05263C28.0003 8.47128 27.529 8 26.9476 8H19.3687C18.7873 8 18.316 8.47128 18.316 9.05263ZM21.6853 25.263L20.2116 22.1051L14.3169 21.4735C14.3169 21.4735 14.9485 22.3156 16.0011 22.9472C17.4565 23.8204 21.6853 25.263 21.6853 25.263Z" fill="#BA31E1"/>
</svg>
